<?xml version="1.0" encoding="UTF-8" standalone="no"?>
<svg
   xmlns:dc="http://purl.org/dc/elements/1.1/"
   xmlns:cc="http://creativecommons.org/ns#"
   xmlns:rdf="http://www.w3.org/1999/02/22-rdf-syntax-ns#"
   xmlns:svg="http://www.w3.org/2000/svg"
   xmlns="http://www.w3.org/2000/svg"
   xmlns:sodipodi="http://sodipodi.sourceforge.net/DTD/sodipodi-0.dtd"
   xmlns:inkscape="http://www.inkscape.org/namespaces/inkscape"
   width="57mm"
   height="57mm"
   viewBox="0 0 57 57"
   version="1.1"
   id="svg8"
   inkscape:version="1.0.1 (3bc2e813f5, 2020-09-07)"
   sodipodi:docname="audio.svg">
  <defs
     id="defs2" />
  <sodipodi:namedview
     id="base"
     pagecolor="#ffffff"
     bordercolor="#666666"
     borderopacity="1.0"
     inkscape:pageopacity="0.0"
     inkscape:pageshadow="2"
     inkscape:zoom="1.4"
     inkscape:cx="123.96521"
     inkscape:cy="237.04432"
     inkscape:document-units="mm"
     inkscape:current-layer="layer1"
     inkscape:document-rotation="0"
     showgrid="false"
     inkscape:window-width="1920"
     inkscape:window-height="1001"
     inkscape:window-x="-9"
     inkscape:window-y="-9"
     inkscape:window-maximized="1" />
  <metadata
     id="metadata5">
    <rdf:RDF>
      <cc:Work
         rdf:about="">
        <dc:format>image/svg+xml</dc:format>
        <dc:type
           rdf:resource="http://purl.org/dc/dcmitype/StillImage" />
        <dc:title></dc:title>
      </cc:Work>
    </rdf:RDF>
  </metadata>
  <g
     inkscape:label="Capa 1"
     inkscape:groupmode="layer"
     id="layer1">
    <path
       style="fill:#a17834;fill-opacity:1;stroke-width:0.278057"
       d="M 39.368144,56.537573 C 34.476283,55.523536 29.001395,53.309781 24.758537,50.630234 l -2.284941,-1.443038 -2.354933,0.922358 c -3.187355,1.248391 -5.57932,1.848968 -6.609548,1.659533 C 10.70351,51.253203 5.925313,46.492312 3.8195012,42.114567 L 3.1281187,40.67726 5.733552,37.439661 c 1.4329889,-1.780678 2.6054342,-3.314571 2.6054342,-3.408651 0,-0.09407 -0.5783661,-1.379277 -1.2852579,-2.856 C 5.1945968,27.291216 4.2701387,24.185719 4.087591,21.210974 4.002106,19.817918 4.054271,18.386962 4.2035159,18.031072 c 0.2123137,-0.506284 0.3119036,-0.100217 0.4577236,1.866296 0.5700974,7.6883 5.9806555,17.544277 13.3901155,24.391686 4.690058,4.334291 9.860467,7.315191 16.432546,9.473875 6.129642,2.013355 9.445952,2.256881 12.60822,0.925858 l 1.632415,-0.687098 -0.716214,0.853867 c -0.393916,0.469621 -1.182188,1.076178 -1.751711,1.347919 -1.402742,0.669268 -4.537983,0.821331 -6.888467,0.334098 z m 0.112127,-2.259891 C 29.391236,51.84567 15.794064,39.92982 9.0773029,27.634116 5.4134749,20.927112 4.3900485,14.66494 6.3774762,11.114331 7.8272059,8.5243411 11.542191,7.5141696 15.902601,8.5242829 c 2.582478,0.5982429 6.822913,2.5242131 9.97422,4.5302071 2.574717,1.638959 2.697424,1.685152 4.138291,1.557865 0.81669,-0.07215 1.885012,-0.003 2.374045,0.153795 l 0.889151,0.284971 V 8.5656009 c 0,-5.4396522 0.07014,-6.5390448 0.434988,-6.8174257 0.64095,-0.4890577 1.304966,0.1229381 1.304966,1.2027353 0,0.772816 0.106931,0.8892744 0.950069,1.0346955 1.991132,0.3434257 4.288261,2.9582152 4.25671,4.845356 -0.0071,0.430275 -0.19234,1.142246 -0.411438,1.582159 l -0.398354,0.79984 -0.02355,-1.146348 c -0.05376,-2.6159673 -2.241592,-4.5485271 -3.865954,-3.4148664 -0.452687,0.3159347 -0.507486,0.9135079 -0.507486,5.5340344 0,4.517008 -0.06878,5.303891 -0.5375,6.149137 l -0.537502,0.969282 1.803682,1.643531 1.803679,1.643532 1.156683,-0.542524 c 1.817902,-0.852658 3.712914,-0.976951 5.663653,-0.371478 l 1.667006,0.517408 V 11.722166 c 0,-6.159243 0.11648,-10.75417692 0.282814,-11.1563955 0.199056,-0.48134903 0.496628,-0.68389072 1.00477,-0.68389072 0.955701,0 1.322344,0.69741106 1.322344,2.51530232 0,1.4745316 0.0055,1.4839024 0.879291,1.4839024 1.411282,0 2.647874,0.6269662 4.138103,2.0980631 1.996535,1.9709052 2.807582,3.7166188 2.803192,6.0336554 -0.0023,1.268323 -0.182782,2.229349 -0.562973,2.999403 -0.307691,0.62321 -0.598442,1.132624 -0.646114,1.132034 -0.04767,-5.87e-4 -0.09072,-1.050383 -0.09567,-2.33287 -0.0067,-1.733472 -0.145608,-2.571234 -0.541409,-3.264943 C 53.440703,8.4754706 51.80959,7.4340018 50.477163,7.8997494 48.57498,8.5646558 48.647884,8.1851516 48.647884,17.422119 c 0,5.855559 -0.107481,8.722541 -0.355531,9.483718 -0.434051,1.331941 -2.165437,2.984497 -3.38484,3.230734 -0.494727,0.0999 -0.899503,0.267538 -0.899503,0.372528 0,0.104994 0.715393,1.381297 1.58976,2.836234 3.128792,5.206264 4.784418,10.018588 4.788034,13.917128 0.0057,6.141426 -3.95665,8.690295 -10.90554,7.015221 z m 3.856385,-4.022779 c 4.266468,-1.482028 4.768723,-7.401222 1.250519,-14.737636 -0.644084,-1.343091 -1.548462,-2.994666 -2.009729,-3.67017 -0.728957,-1.067518 -0.996436,-1.247637 -2.044721,-1.376907 -1.486296,-0.183283 -3.318731,-1.264639 -4.074739,-2.404583 -0.621405,-0.936985 -0.758347,-2.833104 -0.265735,-3.679355 0.259506,-0.445801 0.0203,-0.812565 -1.634065,-2.505274 -1.935552,-1.980434 -1.939676,-1.982813 -3.167694,-1.828064 -1.61895,0.204013 -3.134939,-0.282598 -4.072777,-1.307299 -0.738106,-0.806472 -0.822921,-1.50216 -0.31702,-2.600301 0.132255,-0.287079 -0.408483,-0.749845 -1.916434,-1.640094 -4.266043,-2.518545 -7.490788,-3.544685 -10.627425,-3.381738 -3.881968,0.201667 -5.6704926,2.213423 -5.6497376,6.3549 0.048786,9.735514 12.4890146,25.440046 24.6162066,31.075488 1.435461,0.667052 3.262411,1.375746 4.05989,1.574874 1.778883,0.444187 4.753368,0.508297 5.853461,0.126159 z M 30.66838,45.003349 c -1.226563,-0.399043 -3.252929,-2.112816 -5.901239,-4.99089 -1.618936,-1.759395 -3.962545,-4.219975 -5.208017,-5.467959 -2.447177,-2.452107 -3.989413,-4.440931 -4.483008,-5.781155 -0.30541,-0.829258 -0.28768,-0.85499 0.898036,-1.303493 0.665276,-0.251643 2.228859,-0.516673 3.474627,-0.588955 5.423232,-0.314663 10.221097,2.363792 12.752264,7.119077 0.885218,1.663048 0.93227,1.906194 0.93227,4.817503 0,2.579791 -0.0983,3.256334 -0.619824,4.265818 -0.816456,1.580369 -1.315477,2.102361 -1.845109,1.930054 z M 8.3232627,53.505894 C 6.1298137,52.204049 2.4872219,48.114856 1.0487726,45.339512 0.11835798,43.544371 -0.04292134,41.528326 0.65419467,40.407159 l 0.41443613,-0.666534 0.010283,0.684797 c 0.021303,1.419737 0.9422058,3.475754 2.5781598,5.756032 3.4744572,4.842877 5.271309,6.404469 8.3902064,7.291677 1.351461,0.38444 1.484097,0.476312 0.896384,0.620932 -1.629653,0.400993 -3.3153072,0.186412 -4.6203946,-0.588169 z"
       id="path24" />
  </g>
</svg>
